<?php xml version="1.0" standalone="no"?>
<!DOCTYPE svg PUBLIC "-//W3C//DTD SVG 1.1//EN" "http://www.w3.org/Graphics/SVG/1.1/DTD/svg11.dtd">
<svg xmlns="http://www.w3.org/2000/svg">
<metadata>Generated by Fontastic.me</metadata>
<defs>
<font id="weather" horiz-adv-x="512">
<font-face font-family="weather" units-per-em="512" ascent="480" descent="-32"/>
<missing-glyph horiz-adv-x="512" />

<glyph unicode="&#97;" d="M405-1l-254 0c-58 0-106 47-106 103 0 57 48 104 106 104l38 0c14 47 58 80 111 80 51 0 97-33 111-80 56-2 101-48 101-104 0-56-48-103-107-103z m-254 186c-46 0-85-38-85-83 0-44 39-82 85-82l254 0c47 0 86 38 86 82 0 45-39 83-86 83l-11 0-3 8c-8 42-46 72-91 72-45 0-83-30-92-72l-2-8z m-5 8c-21 24-34 53-34 84 0 69 53 122 122 122 67 0 120-53 120-122 0-4 0-8-1-14l-20 6c1 3 1 5 1 9 0 57-44 101-99 101-57 0-101-44-101-101 0-25 10-50 28-69z m77 308l21 0 0-80-21 0z m154-213l78 0 0-21-78 0z m-366 0l79 0 0-21-79 0z m372 156l15-15-55-56-15 15z m-300-1l56-56-15-15-56 56z"/>
<glyph unicode="&#98;" d="M100 231l-24 0c-37 5-64 35-64 71 0 39 33 71 72 71 2 0 6 0 9 0 10 29 46 49 87 49 26 0 49-7 66-20l-12-17c-13 11-32 16-54 16-35 0-66-18-69-42l-2-10-11 2c-4 1-8 1-14 1-29 0-51-22-51-50 0-26 19-46 45-49l22 0z m257-20l-203 0c-41 0-74 26-74 57 0 32 33 57 74 57 3 0 5 0 8 0 0 4-1 7-1 9 0 37 41 67 92 67 41 0 77-20 87-49 3 0 6 1 9 1 39 0 72-32 72-71 0-37-27-67-64-71z m-203 93c-29 0-53-17-53-36 0-19 24-35 53-35l201 0c26 3 45 23 45 49 0 27-22 50-51 50-4 0-9-1-14-2l-11-3-2 11c-3 24-34 42-69 42-39 0-71-21-71-46 0-7 3-12 5-16l16-25-28 8c-6 2-14 3-21 3z m260 7l-15 16c12 11 18 25 19 39 1 16-4 31-15 41-10 12-24 19-40 20-27 1-52-16-60-41l-20 7c11 34 44 56 81 55 21-1 41-11 55-27 14-16 22-36 20-57-1-19-10-39-25-53z m-127 175l16-25-18-12-16 26z m54 15l22 0 0-30-22 0z m79-6l18-11-16-26-18 12z m59-51l13-17-25-18-13 17z m21-72l3-21-31-5-2 21z m-455-211l21-5-9-37-21 4z m-36-111l20-5-8-37-21 4z m172 112l21-5-10-38-20 6z m-37-112l21-5-9-37-20 4z m172 112l20-5-9-37-21 5z m-36-112l20-5-8-37-21 4z"/>
<glyph unicode="&#99;" d="M132 250c-2 0-4 1-6 2-26 19-40 47-40 77 0 53 44 96 97 96 42 0 79-27 92-67 2-5-1-11-6-13-6-3-12 2-13 7-11 31-39 51-73 51-41 0-75-33-75-74 0-24 11-45 31-60 4-3 5-11 2-15-2-3-6-4-9-4z m53 179c-7 0-11 4-11 10l0 62c0 7 4 11 11 11 6 0 10-4 10-11l0-62c0-6-4-10-10-10z m-112-111l-62 0c-7 0-11 4-11 11 0 6 4 10 11 10l62 0c6 0 10-4 10-10 0-7-4-11-10-11z m189 79c-3 0-5 1-7 3-4 4-4 11 0 15l44 44c4 4 10 4 15 0 4-5 4-11 0-15l-44-44c-2-2-4-3-8-3z m-200-201c-3 0-5 1-8 3-4 5-4 11 0 15l44 44c4 4 11 4 15 0 4-4 4-11 0-15l-44-44c-2-2-4-3-7-3z m44 201c-4 0-6 1-8 3l-44 44c-4 4-4 10 0 15 5 4 11 4 15 0l44-44c4-4 4-11 0-15-2-2-4-3-7-3z m316-243l-210 0c-50 0-90 38-90 86 0 48 40 86 90 86l30 0c12 39 49 65 93 65 43 0 80-26 93-65 47-3 84-39 85-86 0-48-40-86-91-86z m-210 151c-38 0-69-29-69-65 0-36 31-65 69-65l210 0c39 0 70 29 70 65-1 36-32 65-71 65l-2 0c-5 0-9 3-10 9-8 33-39 56-74 56-36 0-67-23-74-56-1-6-5-9-10-9z m6-238c-1 0-4 0-5 1-5 2-7 9-5 14l15 32c2 5 8 8 14 5 5-2 7-8 5-13l-15-32c-2-5-5-7-9-7z m-38-67c-1 0-3 0-4 1-5 2-7 9-5 14l15 32c2 5 8 7 13 5 6-2 8-8 6-14l-15-32c-2-4-5-6-10-6z m115 67c-2 0-3 0-4 1-5 2-7 9-4 14l16 32c2 5 8 8 14 4 5-2 7-8 4-13l-16-32c-2-4-5-6-10-6z m-37-67c-2 0-3 0-4 1-5 2-8 9-4 14l16 32c2 5 8 7 13 4 6-2 8-8 5-14l-16-32c-2-3-6-5-10-5z m116 67c-1 0-3 0-4 1-5 2-7 9-5 14l15 32c2 5 8 8 14 5 5-2 7-8 5-13l-15-32c-2-5-5-7-10-7z m-37-67c-1 0-3 0-4 1-6 2-8 9-6 14l15 32c3 5 9 7 14 5 6-2 8-8 6-14l-15-32c-2-4-6-6-10-6z"/>
<glyph unicode="&#100;" d="M306 253l-207 0 0 21 207 0c18 0 32 14 32 32 0 18-14 32-32 32l0 21c30 0 53-23 53-53 0-30-23-53-53-53z m-94-95l0 21c12 0 22 10 22 22 0 11-10 21-22 21l-159 0 0 21 159 0c24 0 43-19 43-42 0-24-19-43-43-43z m-16-46c-46 0-83 37-83 83l21 0c0-34 28-62 62-62 23 0 44 13 55 33l6 13 11-10c15-15 35-24 55-24 32 0 62 20 74 51l2 7 8 0c46 0 84 37 84 83 0 45-39 83-84 83-17 0-33-5-48-15l-8-5-6 8c-9 12-22 20-37 20-20 0-37-14-41-34l-5-19-13 15c-15 16-37 26-60 26-36 0-67-24-78-59l-20 7c14 43 53 73 99 73 23 0 45-7 63-21 10 20 33 34 56 34 18 0 36-8 47-20 16 9 34 14 53 14 56 0 104-48 104-105 0-55-44-101-98-105-16-35-52-57-91-57-21 0-42 7-61 21-16-22-40-35-67-35z"/>
<glyph unicode="&#101;" d="M254 245c-7 0-11 5-11 11l0 238c0 6 4 11 11 11 6 0 11-5 11-11l0-238c0-6-5-11-11-11z m0-238c-7 0-11 5-11 11l0 238c0 6 4 11 11 11 6 0 11-5 11-11l0-238c0-6-5-11-11-11z m2 415c-39 0-71 32-71 72 0 6 4 11 10 11 7 0 11-5 11-11 0-28 22-50 50-50 28 0 50 22 50 50 0 6 4 11 11 11 6 0 10-5 10-11 0-40-32-72-71-72z m0-82c-39 0-71 32-71 72 0 6 4 10 10 10 7 0 11-4 11-10 0-28 22-50 50-50 28 0 50 22 50 50 0 6 4 10 11 10 6 0 10-4 10-10 0-40-32-72-71-72z m61-333c-7 0-11 5-11 11 0 28-22 50-50 50-28 0-50-22-50-50 0-6-4-11-11-11-6 0-10 5-10 11 0 40 32 72 71 72 39 0 71-32 71-72 0-6-4-11-10-11z m0 83c-7 0-11 4-11 10 0 28-22 50-50 50-28 0-50-22-50-50 0-6-4-10-11-10-6 0-10 4-10 10 0 40 32 72 71 72 39 0 71-32 71-72 0-6-4-10-10-10z m-62 157c-3 0-8 3-10 6-3 5-1 12 4 15l204 121c6 4 12 1 15-3 3-5 1-12-3-15l-205-122c-1-2-3-2-5-2z m-205-121c-3 0-7 2-9 5-4 6-2 12 3 15l205 122c5 3 11 1 14-3 4-6 2-12-3-15l-205-123c-1-1-3-1-5-1z m411 180c-7 0-12 1-18 2-18 5-34 16-44 33-10 17-13 36-8 55 5 18 16 34 34 43 5 4 11 2 14-4 4-5 2-12-4-15-23-14-32-45-17-68 7-12 18-19 31-23 13-5 27-2 38 5 6 3 12 1 15-4 4-6 1-12-4-15-12-6-24-9-37-9z m-71-43c-6 0-11 2-18 3-18 4-34 16-43 33-10 17-13 35-8 54 4 18 16 34 33 44 5 3 12 1 15-4 3-6 1-12-4-15-12-7-19-19-24-31-3-13-1-27 6-39 6-11 18-19 31-23 12-3 26-1 38 5 5 3 12 1 15-4 3-5 1-12-4-15-11-4-24-8-37-8z m-308-192c-3 0-7 3-9 6-4 5-2 12 4 15 23 14 32 45 17 68-14 23-45 32-68 17-6-2-12-1-15 4-4 6-1 12 4 15 34 21 78 9 98-25 20-34 9-78-26-98-2-2-3-2-5-2z m71 43c-4 0-8 2-10 5-3 6-1 12 4 15 12 7 19 19 24 31 3 13 1 27-6 39-14 23-44 32-68 17-5-3-12-1-15 4-3 5-1 12 4 15 35 20 78 9 99-26 9-16 12-35 7-54-4-18-16-34-33-44-3-2-4-2-6-2z m307 8c-2 0-3 0-6 1l-204 121c-6 3-7 10-4 15 4 6 10 7 15 3l205-121c5-3 7-10 3-15-2-2-6-4-9-4z m-205 121c-2 0-3 0-5 1l-205 122c-6 3-7 9-3 15 3 5 9 6 15 3l204-122c6-3 7-9 4-15-3-2-7-4-10-4z m175-172c-2 0-3 0-5 2-16 9-28 25-34 43-4 18-2 38 8 55 20 34 64 44 98 25 5-3 6-9 4-15-3-5-9-6-15-4-23 14-54 6-68-17-14-23-6-54 17-68 6-3 7-10 4-15-2-3-6-6-9-6z m-71 43c-2 0-3 0-5 1-16 10-28 26-33 44-4 18-2 37 8 54 20 34 64 45 98 26 5-3 6-10 4-15-3-5-10-6-15-4-23 14-54 6-68-17-7-12-9-25-6-39 4-13 12-23 24-31 5-3 6-9 4-15-3-2-7-4-11-4z m-308 192c-13 0-24 3-36 10-5 3-6 9-4 15 3 5 9 6 15 4 23-15 54-6 68 17 14 23 6 54-17 68-6 3-7 10-4 15 3 6 9 7 14 4 35-20 45-64 26-98-14-22-37-35-62-35z m71-43c-13 0-26 4-37 10-5 3-6 10-4 15 3 5 10 6 15 4 12-6 25-8 38-5 13 3 24 12 31 23 7 12 9 25 6 39-4 14-12 23-24 31-5 3-6 9-4 15 3 5 10 6 15 4 16-10 28-26 33-44 4-18 2-37-8-54-9-16-25-28-43-33-7-3-13-5-18-5z"/>
<glyph unicode="&#102;" d="M497 245l-482 0c-6 0-11 5-11 11 0 6 5 11 11 11l482 0c6 0 11-5 11-11 0-6-5-11-11-11z m0-65c-3 0-5 1-7 3l-65 66c-5 4-5 10 0 14l65 66c4 4 10 4 15 0 4-5 4-11 0-15l-58-58 58-58c4-4 4-10 0-15-3-2-5-3-8-3z m-85 23c-3 0-6 1-8 3l-42 43c-5 4-5 10 0 14l42 43c5 4 11 4 15 0 4-4 4-11 0-15l-35-35 35-35c4-4 4-11 0-15-2-2-4-3-7-3z m-397-23c-3 0-5 1-8 3-4 5-4 11 0 15l58 58-58 58c-4 4-4 10 0 15 5 4 11 4 15 0l65-66c3-2 4-4 4-7 0-3-1-5-4-7l-65-66c-2-2-4-3-7-3z m85 23c-3 0-5 1-7 3-4 4-4 11 0 15l35 35-35 35c-4 4-4 11 0 15 4 4 10 4 15 0l42-43c5-4 5-10 0-14l-42-43c-2-2-5-3-8-3z m35-167c-2 0-3 0-5 1-5 4-6 10-4 15l241 418c3 6 10 7 15 5 5-4 6-10 4-15l-241-418c-2-4-6-6-10-6z m208 362c-4 0-8 3-10 7l-24 89c-1 5 2 12 8 13 5 1 12-2 13-8l20-78 79 21c5 1 12-3 13-8 1-5-3-12-8-13l-89-23c1 0 0 0-2 0z m-30-55c-3 0-4 0-6 2-2 1-4 4-5 6l-15 58c-1 5 2 11 7 12 6 1 12-2 13-7l12-47 48 13c5 1 12-2 13-8 1-5-2-11-8-13l-58-16c1 0 0 0-1 0z m-121-339c-4 0-9 3-11 8l-20 78-79-21c-5-1-12 2-13 8-1 5 2 12 8 13l89 23c6 1 12-2 13-7l24-89c1-5-2-12-8-13-1 0-2 0-3 0z m22 86c-4 0-9 3-10 7l-12 48-48-13c-5-1-12 2-13 8-1 5 2 11 8 13l58 16c4 1 6 0 9-2 2-1 4-4 5-6l15-58c1-5-2-11-7-12-2-1-4-1-5-1z m163-54c-4 0-8 2-10 6l-241 418c-3 5-1 11 4 15 5 3 12 1 15-5l241-418c3-5 1-11-4-15-2-1-3-1-5-1z m-208 362c-2 0-3 0-4 0l-89 23c-6 2-9 8-8 14 1 6 8 10 13 8l79-21 21 78c1 6 8 10 13 8 5-1 10-8 8-13l-23-90c-2-4-6-7-10-7z m30-55c-1 0-2 0-3 0l-58 16c-6 2-9 8-8 13 1 6 8 9 13 8l48-13 12 47c1 5 7 9 12 7 6-1 10-7 8-12l-15-58c-1-3-2-5-5-6 0-2-1-2-4-2z m121-339c-1 0-2 0-3 0-6 1-10 8-8 13l24 89c1 5 7 8 13 7l89-23c6-1 10-8 8-13-1-6-8-9-13-8l-79 21-20-78c-2-5-7-8-11-8z m-22 86c-1 0-3 0-4 0-5 1-9 7-7 12l15 58c1 3 2 5 5 6 2 1 6 3 9 1l58-16c6-1 9-7 8-12-1-6-8-9-13-8l-49 14-12-47c-1-5-6-8-10-8z m-42 328c-6 0-11 4-11 11l0 68c0 6 5 11 11 11 6 0 11-5 11-11l0-68c0-7-5-11-11-11z m0-414c-6 0-11 5-11 11l0 68c0 7 5 11 11 11 6 0 11-4 11-11l0-68c0-6-5-11-11-11z m-149 328c-2 0-4 0-6 1l-59 34c-6 3-7 10-5 15 4 5 10 6 15 4l60-34c5-3 6-10 4-15-2-3-6-5-9-5z m358-207c-2 0-3 0-5 1l-60 34c-5 3-6 10-4 15 3 5 9 6 15 4l59-34c6-3 7-10 5-15-2-3-7-5-10-5z m-418 0c-3 0-8 2-10 5-3 5-1 12 5 15l59 34c6 3 12 1 15-4 3-5 1-12-4-15l-60-34c-2-1-3-1-5-1z m358 207c-3 0-7 2-9 5-3 5-1 12 4 15l60 34c5 3 11 1 15-4 3-5 1-12-5-15l-59-34c-2-1-4-1-6-1z"/>
<glyph unicode="&#103;" d="M256 0c-93 0-167 75-167 167 0 93 74 168 167 168 93 0 167-75 167-168 0-92-74-167-167-167z m0 314c-81 0-146-65-146-147 0-81 65-146 146-146 81 0 146 65 146 146 0 82-65 147-146 147z m0 0c-54 0-99 44-99 99 0 54 45 99 99 99 54 0 99-45 99-99 0-55-45-99-99-99z m0 177c-43 0-78-36-78-78 0-43 35-78 78-78 43 0 78 35 78 78 0 42-35 78-78 78z m-43-55l15 0 0-21-15 0z m71 0l15 0 0-21-15 0z m-193-24l76 0 0-22-76 0z m254 0l76 0 0-22-76 0z"/>
<glyph unicode="&#104;" d="M132 250c-2 0-4 1-6 2-26 19-40 47-40 77 0 53 44 96 97 96 42 0 79-27 92-67 2-5-1-11-6-13-6-3-12 2-13 7-11 31-39 51-73 51-41 0-75-33-75-74 0-24 11-45 31-60 4-3 5-11 2-15-2-3-6-4-9-4z m53 179c-7 0-11 4-11 10l0 62c0 7 4 11 11 11 6 0 10-4 10-11l0-62c0-6-4-10-10-10z m-112-111l-62 0c-7 0-11 4-11 11 0 6 4 10 11 10l62 0c6 0 10-4 10-10 0-7-4-11-10-11z m189 79c-3 0-5 1-7 3-4 4-4 11 0 15l44 44c4 4 10 4 15 0 4-5 4-11 0-15l-44-44c-2-2-4-3-8-3z m-200-201c-3 0-5 1-8 3-4 5-4 11 0 15l44 44c4 4 11 4 15 0 4-4 4-11 0-15l-44-44c-2-2-4-3-7-3z m44 201c-4 0-6 1-8 3l-44 44c-4 4-4 10 0 15 5 4 11 4 15 0l44-44c4-4 4-11 0-15-2-2-4-3-7-3z m316-243l-210 0c-50 0-90 38-90 86 0 48 40 86 90 86l30 0c12 39 49 65 93 65 43 0 80-26 93-65 47-3 84-39 85-86 0-48-40-86-91-86z m-210 151c-38 0-69-29-69-65 0-36 31-65 69-65l210 0c39 0 70 29 70 65-1 36-32 65-71 65l-2 0c-5 0-9 3-10 9-8 33-39 56-74 56-36 0-67-23-74-56-1-6-5-9-10-9z m267-224l-132 0c-7 0-11 4-11 11 0 6 4 10 11 10l132 0c6 0 11-4 11-10 0-7-5-11-11-11z m-105-42c-3 0-5 2-7 4l-42 41c-2 2-3 5-3 8 0 3 1 5 3 7l42 41c4 4 11 4 15 0 4-5 4-11 0-15l-34-33 34-34c4-5 4-11 0-15-2-2-4-4-8-4z m-73 2l-132 0c-7 0-11 4-11 10 0 7 4 11 11 11l132 0c6 0 10-4 10-11 0-6-4-10-10-10z m-105-41c-3 0-5 1-7 3l-42 41c-2 2-3 4-3 7 0 3 1 6 3 8l42 41c4 5 10 5 15 0 4-4 4-10 0-15l-34-34 34-33c4-4 4-11 0-15-2-2-5-3-8-3z"/>
<glyph unicode="&#105;" d="M418 0l-311 0c-59 0-107 43-107 96 0 53 48 96 108 96 6 0 14-1 20-2-2 8-3 17-3 27 0 64 61 115 134 115 64 0 119-39 131-91 6 1 11 2 17 2 58 0 105-54 105-121 0-58-35-107-83-119l0-2z m-310 171c-48 0-87-33-87-75 0-42 39-75 86-75l303 0 7 1c43 6 74 48 74 100 0 55-38 100-84 100-7 0-13-1-20-3l-14-4-1 12c-5 48-54 83-112 83-62 0-113-41-113-93 0-13 3-26 9-38l11-23-25 9c-11 4-23 6-34 6z m303 194c-2 0-4 0-6 0-22 1-41 12-56 28-31 34-28 85 7 116l14-16c-13-11-20-26-21-43-1-16 4-32 15-44 10-12 25-20 41-21 16-1 32 4 45 15l14-16c-14-12-33-19-53-19z"/>
<glyph unicode="&#106;" d="M502 225l-21 0c0 118-101 216-225 216-124 0-225-98-225-216l-21 0c0 130 111 237 246 237 135 0 246-107 246-237z m-116 0l-21 0c0 84-20 190-115 216l6 21c85-24 130-106 130-237z m-245 0l-22 0c0 131 45 213 131 237l6-21c-95-26-115-132-115-216z m48-224c-43 0-78 36-78 81l21 0c0-33 26-60 57-60 31 0 56 27 56 60l0 149 22 0 0-149c0-45-36-81-78-81z m56 500l22 0 0-50-22 0z m-234-259l490 0 0-21-490 0z"/>
<glyph unicode="&#107;" d="M146 183l-44 0c-56 0-102 46-102 103 0 56 46 102 102 102l35 0c13 47 56 79 106 79 50 0 93-32 107-79 54-3 97-48 97-102 0-3 0-5-1-9 0-1 0-2 0-3l0-1c-2-19-11-38-23-52l-16 14c10 11 16 26 19 40 0 2 0 3 1 6 0 2 0 3 0 5 0 45-37 81-81 81l-12 0-3 8c-9 42-45 71-88 71-42 0-79-29-87-71l-2-8-52 0c-44 0-81-36-81-81 0-45 37-81 81-81l44 0z m274-139l-215 0c-51 0-93 41-93 93 0 51 42 92 93 92l31 0c11 42 50 71 95 71 44 0 82-29 95-71 48-3 86-43 87-92 0-52-42-93-93-93z m-215 164c-40 0-72-32-72-71 0-40 32-72 72-72l215 0c40 0 72 32 72 72-1 39-33 71-73 71l-10 0-3 9c-7 36-38 61-75 61-38 0-70-25-76-61l-2-9z"/>
<glyph unicode="&#108;" d="M428 270l-321 0c-59 0-107 32-107 71 0 41 47 72 108 72 6 0 13 0 18-1-1 5-2 9-2 15 0 48 58 85 134 85 64 0 116-27 130-64 7 1 12 1 18 1 58 0 105-40 105-90 0-42-35-78-83-87z m-320 121c-47 0-87-23-87-50 0-26 40-50 86-50l299 0 10 1c42 5 74 33 74 67 0 38-38 69-84 69-8 0-15-1-23-3l-11-4-2 12c-5 32-54 58-112 58-61 0-113-29-113-64 0-8 3-15 9-23l16-21-27 5c-11 1-24 3-35 3z m250-270l-232 0 0 21 232 0c29 0 53 19 53 41 0 23-24 42-53 42l0 21c41 0 74-27 74-63 0-35-33-62-74-62z m-109 50l-168 0 0 21 168 0c19 0 34 11 34 23 0 11-15 24-34 24l0 21c29 0 55-20 55-45 0-25-25-44-55-44z m22-171l0 21c19 0 34 13 34 24 0 13-15 23-34 23l-168 0 0 22 168 0c31 0 55-20 55-45 0-25-25-45-55-45z"/>
<glyph unicode="&#109;" d="M291 0c-15 0-29 3-42 9-29 11-53 33-64 61-12 28-13 59-2 88 23 55 155 127 171 134 3 1 7 2 9 0 3-1 5-3 6-6 5-16 53-158 31-213-18-44-61-73-109-73z m61 268c-45-25-134-80-149-118-10-22-9-48 1-70 9-23 29-42 52-50 12-4 22-7 35-7 40 0 74 24 88 60 16 35-11 136-27 185z m-260 8c-12 0-23 2-33 7-48 18-71 69-53 117 17 43 120 98 132 105 3 1 6 2 8 0 3-2 5-4 7-7 4-13 41-123 24-165-14-34-48-57-85-57z m43 203c-34-19-99-60-109-88-14-36 3-75 39-89 9-3 17-4 26-4 28 0 54 17 65 43 11 27-8 101-21 138z m333-74c-5 0-10 1-16 4-22 8-34 34-25 56 8 20 49 42 57 46 3 1 7 1 10 0 3-1 5-3 6-6 3-9 18-54 10-73-8-16-24-27-42-27z m15 80c-16-9-33-21-36-28-4-11 2-25 13-29 11-5 24 1 29 11 4 8 0 28-6 46z m-179-160c-7 0-16 1-23 5-16 6-28 18-35 33-6 15-6 32-1 47 12 28 78 64 86 68 3 2 6 2 9 1 3-1 6-3 7-6 4-13 26-80 15-108-10-24-32-40-58-40z m26 128c-26-15-59-37-64-51-9-21 1-44 22-52 5-2 11-3 15-3 17 0 31 9 36 25 8 14-1 53-9 81z"/>
<glyph unicode="&#110;" d="M501 245l-490 0c-7 0-11 5-11 11 0 6 4 11 11 11l490 0c7 0 11-5 11-11 0-6-4-11-11-11z m-245-245c-6 0-11 4-11 11l0 490c0 7 5 11 11 11 6 0 11-4 11-11l0-490c0-7-5-11-11-11z m174 71c-3 0-5 2-8 4l-347 347c-5 5-5 11 0 15 4 5 10 5 15 0l347-347c5-5 5-11 0-15-2-2-4-4-7-4z m-348 0c-3 0-5 2-7 4-5 4-5 10 0 15l347 347c5 5 11 5 15 0 5-4 5-10 0-15l-347-347c-3-2-5-4-8-4z"/>
<glyph unicode="&#111;" d="M256 191c-36 0-65 29-65 65 0 36 29 65 65 65 36 0 65-29 65-65 0-36-29-65-65-65z m0 109c-25 0-44-19-44-44 0-25 19-44 44-44 25 0 44 19 44 44 0 25-19 44-44 44z m0-296c-6 0-11 5-11 11l0 183c0 7 5 11 11 11 6 0 11-4 11-11l0-183c0-6-5-11-11-11z m0 299c-6 0-11 4-11 11l0 183c0 6 5 11 11 11 6 0 11-5 11-11l0-183c0-7-5-11-11-11z m208-178c-2 0-3 0-5 1l-159 92c-6 3-7 9-5 15 4 5 10 6 15 4l159-92c6-3 7-10 5-15-3-3-7-5-10-5z m-257 149c-2 0-3 0-5 1l-159 92c-6 3-7 10-5 15 4 5 10 6 15 4l159-92c6-3 7-9 5-15-3-3-7-5-10-5z m98 0c-3 0-7 2-10 5-3 6-1 12 5 15l159 92c5 3 11 1 15-4 3-5 1-12-5-15l-159-92c-2-1-3-1-5-1z m-257-149c-3 0-7 2-10 5-3 5-1 12 5 15l159 92c5 3 11 1 15-4 3-6 1-12-5-15l-159-92c-2-1-3-1-5-1z m422 47c-2 0-4 0-5 1l-93 56 0 53 93 56c5 3 12 1 15-3 3-5 1-12-3-15l-82-50 0-29 82-50c5-3 6-10 3-15-2-2-6-4-10-4z m-428 0c-4 0-8 2-10 5-3 5-1 12 3 15l82 50 0 29-81 49c-5 3-6 10-3 15 3 5 10 6 15 3l93-56 0-53-93-56c-2-1-4-1-6-1z m295 170l-46 27-2 109c0 6 4 11 11 11 6 0 10-5 10-11l3-96 24-14 84 47c6 2 12 1 15-4 3-6 1-12-4-15z m-125-319c-5 0-10 5-10 11l-3 96-24 14-84-46c-6-3-12-2-15 3-2 6-1 12 4 15l95 53 46-25 2-109c0-6-4-12-11-12z m-37 319l-95 54c-5 3-6 9-4 15 3 5 9 6 15 4l84-47 24 14 3 96c0 6 5 11 10 11 7 0 11-6 11-11l-2-109z m125-319c-7 0-11 6-11 11l2 109 46 24 95-52c5-3 7-9 4-15-3-5-9-7-15-4l-84 46-24-14-3-96c0-4-5-9-10-9z m-206 222l-52 0c-7 0-11 5-11 11 0 6 4 11 11 11l52 0c6 0 11-5 11-11 0-6-5-11-11-11z m376 0l-52 0c-6 0-11 5-11 11 0 6 5 11 11 11l52 0c7 0 11-5 11-11 0-6-4-11-11-11z m-321-185c-2 0-3 0-5 1-5 3-6 9-4 15l25 45c4 5 10 6 15 4 6-3 7-10 5-15l-26-45c-2-3-6-5-10-5z m188 326c-2 0-3 0-5 1-6 3-7 10-5 15l26 45c3 5 10 6 15 4 5-3 6-9 4-15l-25-45c-2-3-7-5-10-5z m26-326c-4 0-8 2-10 5l-26 45c-3 5-1 12 5 15 5 3 11 1 15-4l25-45c3-6 1-12-4-15-2-1-3-1-5-1z m-188 326c-3 0-8 2-10 5l-25 45c-2 6-1 12 4 15 5 3 12 1 15-4l26-45c3-5 1-12-5-15-2-1-3-1-5-1z"/>
<glyph unicode="&#112;" d="M256 245c-6 0-11 5-11 11l0 244c0 7 5 11 11 11 6 0 11-4 11-11l0-244c0-6-5-11-11-11z m0 166l-61 60c-4 5-4 11 0 15 4 5 11 5 15 0l46-45 46 45c4 5 11 5 15 0 4-4 4-10 0-15z m0-410c-6 0-11 4-11 11l0 244c0 6 5 11 11 11 6 0 11-5 11-11l0-244c0-7-5-11-11-11z m53 21c-3 0-5 1-7 4l-46 45-46-45c-4-5-11-5-15 0-4 4-4 10 0 15l61 60 61-60c4-5 4-11 0-15-2-3-4-4-8-4z m-53 223c-2 0-3 0-5 1l-212 122c-5 3-6 10-4 15 3 5 10 6 15 4l211-121c6-4 7-10 5-15-3-4-7-6-10-6z m-220 65c-4 0-8 4-10 8-1 5 2 12 7 13l63 17-17 63c-1 6 2 11 7 14 6 1 12-3 13-8l23-84-84-23c0 0-1 0-2 0z m431-186c-2 0-3 0-5 1l-211 121c-6 4-7 10-5 15 4 6 10 7 15 5l212-122c5-3 6-10 4-15-2-3-7-5-10-5z m-45-37c-4 0-8 4-10 8l-23 84 84 23c5 1 11-3 12-8 1-5-2-12-7-13l-62-17 16-63c1-5-2-11-7-12 0-2-2-2-3-2z m-377 37c-3 0-8 2-10 5-3 5-1 12 4 15l212 122c5 3 11 1 15-5 3-5 1-11-5-15l-211-121c-2-1-3-1-5-1z m45-37c-1 0-3 0-4 0-5 2-9 8-7 13l17 64-62 16c-5 1-9 8-7 13 1 5 7 10 12 8l84-23-23-84c-1-3-6-7-10-7z m166 158c-3 0-7 2-10 6-3 5-1 11 5 15l211 121c5 3 12 1 15-4 3-5 1-12-4-15l-212-122c-2-1-3-1-5-1z m220 65c-1 0-2 0-3 0l-84 23 23 84c1 5 7 10 13 8 5-2 9-8 7-13l-16-64 62-16c5-1 9-8 7-13-1-5-5-9-9-9z"/>
<glyph unicode="&#113;" d="M410 266c-46 0-95 20-160 71-127 100-233 20-237 17l-13 17c1 1 123 94 262-17 113-89 169-76 239-43l9-19c-35-17-67-26-100-26z m18-161c-46 0-101 24-178 76-143 95-233 6-236 1l-15 15c1 1 104 107 263 1 136-91 187-86 237-44l14-16c-28-23-54-33-85-33z m-24 76c-55 0-101 34-125 52-102 74-171 49-171 49l-9 20c3 1 79 31 193-51 43-32 94-62 151-41l7-20c-16-7-32-9-46-9z"/>
<glyph unicode="&#114;" d="M265-1c-19 0-36 3-53 10-35 13-64 40-79 75-15 35-16 74-2 109 28 72 205 164 212 169 4 1 7 2 9 0 3-1 5-4 6-7 4-7 68-196 40-266-23-54-75-90-133-90z m76 339c-55-31-171-102-191-151-11-30-11-63 1-93 13-30 37-52 68-64 15-5 30-9 44-9 51 0 95 30 114 77 20 48-15 179-36 240z m-249-62c-12 0-23 2-33 7-48 18-71 69-53 117 17 43 120 98 132 105 3 1 6 2 8 0 3-2 5-4 7-7 4-13 41-123 24-165-14-34-48-57-85-57z m43 203c-34-19-99-60-109-88-14-36 3-75 39-89 9-3 17-4 26-4 28 0 54 17 65 43 11 27-8 101-21 138z m302-156c-9 0-18 2-27 6-19 7-33 21-42 39-7 18-9 38-1 58 15 36 97 81 107 85 3 1 6 1 9 0 3-1 6-3 7-6 3-10 33-99 19-135-13-29-41-47-72-47z m36 162c-34-19-77-49-86-68-5-13-5-28 1-40 6-13 16-24 30-29 7-2 13-3 19-3 23 0 43 13 52 34 7 19-5 71-16 106z"/>
<glyph unicode="&#115;" d="M423 261l-36 0 0 22 36 0c38 0 69 23 69 52 0 29-31 52-69 52-7 0-17-1-27-4l-24-6 12 21c5 9 7 17 7 25 0 37-40 67-90 67-47 0-86-26-90-59l-2-13-12 4c-5 3-11 3-17 3-37 0-66-31-66-72 0-2 0-4 0-6l-19-6c-2 6-2 10-2 13 0 52 38 93 87 93 5 0 9 0 12-1 13 38 57 66 109 66 63 0 112-38 112-87 0-6-1-12-2-18 4 2 8 2 12 2 51 0 90-32 90-74 0-41-40-74-90-74z m-8-75l-21 0c0 96-83 173-183 173-100 0-182-77-182-173l-22 0c0 107 92 195 204 195 112 0 204-88 204-195z m-259-186c-37 0-66 31-66 68l21 0c0-25 20-47 45-47 25 0 45 21 45 47l0 123 21 0 0-123c0-37-30-68-66-68z m45 412l21 0 0-41-21 0z m-190-210l401 0 0-22-401 0z"/>
<glyph unicode="&#116;" d="M395 188l-279 0c-64 0-116 52-116 116 0 64 52 116 116 116l42 0c16 55 65 92 121 92 57 0 106-37 122-92 30-1 57-13 78-34 21-22 33-51 32-82 0-64-52-116-116-116z m-279 211c-52 0-95-43-95-95 0-52 43-95 95-95l279 0c52 0 95 43 95 95 0 26-9 49-27 67-18 18-42 28-67 28l-12 0-2 8c-11 50-53 84-103 84-49 0-91-34-102-84l-2-8z m49-241l15-15-28-28-15 15z m-56-57l15-15-26-27-15 15z m-55-56l15-15-28-27-15 16z m223 112l16-14-27-28-15 15z m-56-56l15-15-26-27-15 16z m-55-56l15-15-28-27-15 16z m223 112l16-14-27-28-15 15z m-56-56l15-15-26-27-15 16z m-55-57l15-15-27-26-15 15z"/>
<glyph unicode="&#117;" d="M396 187l-59 0 0 21 59 0c52 0 95 43 95 95 0 52-43 95-95 95l-12 0-2 8c-11 51-53 85-103 85-49 0-91-34-102-84l-2-8-59 0c-52 0-95-43-95-95 0-52 43-95 95-95l96 0 0-21-96 0c-64 0-116 52-116 116 0 64 52 116 116 116l42 0c16 55 65 92 121 92 57 0 106-37 122-93 62-3 111-54 111-116 0-64-52-116-116-116z m-236-29l15-15-28-28-15 15z m-56-57l15-15-27-27-15 16z m-56-56l15-15-27-27-15 16z m384 112l16-14-27-28-15 15z m-56-56l15-15-27-27-15 16z m-56-57l15-15-26-26-15 15z m-145-40l-15 17 130 113-105-10 135 121-96-17 20 24c1 1 73 82 117 129l16-14c-29-32-71-78-96-106l108 20-142-128 108 10z"/>
<glyph unicode="&#118;" d="M134 288c-36 9-61 41-61 77 0 44 37 79 82 79 44 0 82-35 82-79l0-8-22 0 0 8c0 32-27 57-60 57-33 0-61-25-61-57 0-27 18-49 45-56z m9 213l21 0 0-49-21 0z m-132-126l51 0 0-21-51 0z m236 93l15-15-37-35-14 16z m-166-159l15-15-37-35-15 16z m-21 159l36-34-14-16-37 35z m445-285l-22 0c0 95-84 172-188 172-103 0-187-77-187-172l-22 0c0 107 94 194 209 194 116 0 210-87 210-194z m-266-183c-37 0-67 30-67 67l21 0c0-24 21-46 46-46 24 0 46 22 46 46l0 121 21 0 0-121c0-37-30-67-67-67z m46 405l21 0 0-40-21 0z m-195-207l411 0 0-21-411 0z"/>
<glyph unicode="&#119;" d="M426 191l0 21c36 0 65 29 65 64 0 31-24 59-55 63l-10 2 2 11c1 5 2 10 2 15 0 38-32 69-72 69-9 0-18-2-26-5l-12-5-3 12c-8 31-34 53-66 53-37 0-66-29-66-65l0-15-13 3c-3 1-7 1-11 1-33 0-61-27-61-60l0-16-14 0c-17 0-34-6-45-18-13-12-20-27-20-44 0-35 29-63 65-63l0-21c-48 0-86 37-86 84 0 23 9 44 26 59 15 14 34 22 54 23 3 43 38 76 82 76 1 0 2 0 3 0 6 43 43 76 87 76 38 0 70-24 83-58 7 2 16 4 23 4 52 0 93-41 93-91 0-3 0-7-1-9 36-10 63-43 63-82-1-46-39-84-87-84z m-56 48l21-7-74-224-20 7z m-52 36l20-7-73-224-21 7z m-88-37l20-7-73-224-20 6z m-53 37l21-7-74-224-20 7z"/>
<glyph unicode="&#120;" d="M361 279c-44 0-80 37-80 82 0 44 36 81 80 81 43 0 80-37 80-81 0-45-37-82-80-82z m0 141c-32 0-59-26-59-59 0-34 27-60 59-60 32 0 58 26 58 60 0 33-26 59-58 59z m-11 81l21 0 0-50-21 0z m0-231l21 0 0-51-21 0z m101 101l50 0 0-21-50 0z m-230 0l50 0 0-21-50 0z m231 97l15-15-35-36-16 15z m-162-164l15-16-36-35-15 15z m142-1l35-36-15-15-36 36z m-163 164l36-35-15-16-36 36z m-134-467c-74 0-135 61-135 137 0 52 30 100 78 122l0 180c0 32 25 58 57 58 32 0 58-26 58-58l0-180c48-22 78-70 78-122 0-76-61-137-136-137z m0 476c-19 0-36-17-36-37l0-194-6-3c-44-17-72-59-72-105 0-64 52-116 114-116 63 0 115 52 115 116 0 46-28 88-72 106l-6 2 0 194c0 21-16 37-37 37z"/>
<glyph unicode="&#121;" d="M256 189c-37 0-67 30-67 67 0 37 30 67 67 67 37 0 67-30 67-67 0-37-30-67-67-67z m0 113c-26 0-46-20-46-46 0-26 20-46 46-46 26 0 46 20 46 46 0 26-20 46-46 46z m0 0c-6 0-11 4-11 11l0 72c0 6 5 11 11 11 6 0 11-5 11-11l0-72c0-7-5-11-11-11z m0-186c-6 0-11 5-11 11l0 72c0 7 5 11 11 11 6 0 11-4 11-11l0-72c0-6-5-11-11-11z m25 282l-50 0c-6 0-10 4-10 11 0 6 4 10 10 10l50 0c6 0 10-4 10-10 0-7-4-11-10-11z m0-305l-50 0c-6 0-10 4-10 10 0 7 4 11 10 11l50 0c6 0 10-4 10-11 0-6-4-10-10-10z m-25 325l-66 67c-4 5-4 11 0 15 4 5 11 5 15 0l51-52 51 52c4 5 11 5 15 0 4-4 4-10 0-15z m59-409c-4 0-6 1-8 3l-51 52-51-52c-4-5-11-5-15 0-4 4-4 10 0 15l66 67 66-67c4-5 4-11 0-15-2-2-4-3-7-3z m-59 180c-37 0-67 30-67 67 0 37 30 67 67 67 37 0 67-30 67-67 0-37-30-67-67-67z m0 113c-26 0-46-20-46-46 0-26 20-46 46-46 26 0 46 20 46 46 0 26-20 46-46 46z m-49-28c-2 0-3 0-5 1l-63 36c-6 4-7 10-5 15 4 6 10 7 15 5l63-37c6-3 7-9 5-15-3-3-7-5-10-5z m161-94c-2 0-3 0-5 1l-63 37c-6 3-7 9-5 15 4 5 10 6 15 4l63-36c6-4 7-10 5-15-3-4-7-6-10-6z m-257 121c-2 0-3 0-5 1-6 3-7 9-5 15l25 42c3 6 9 7 15 5 5-3 6-10 4-15l-24-43c-3-3-7-5-10-5z m266-154c-3 0-4 0-6 1-5 3-6 10-4 15l24 43c4 5 10 6 15 4 6-3 7-9 5-15l-25-42c-2-4-6-6-9-6z m-356 166c-4 0-8 3-10 7-1 5 2 12 7 13l72 19-20 70c-1 7 3 12 8 14 6 1 12-2 14-7l24-92-91-24c-2 0-3 0-4 0z m410-237c-4 0-9 3-11 7l-24 92 91 24c6 2 12-2 13-7 1-5-2-12-7-13l-71-19 19-70c1-6-3-12-8-13 0-1-1-1-2-1z m-175 113c-37 0-67 30-67 67 0 37 30 67 67 67 37 0 67-30 67-67 0-37-30-67-67-67z m0 113c-26 0-46-20-46-46 0-26 20-46 46-46 26 0 46 20 46 46 0 26-20 46-46 46z m-112-122c-3 0-7 2-10 6-3 5-1 11 5 15l63 36c5 3 11 1 15-4 3-6 1-12-5-15l-63-37c-2-1-3-1-5-1z m161 94c-3 0-7 2-10 5-3 6-1 12 5 15l63 37c5 3 11 1 15-5 3-5 1-11-5-15l-63-36c-2-1-3-1-5-1z m-170-127c-3 0-7 2-9 6l-25 42c-3 6-1 12 5 15 5 3 11 1 15-4l24-43c3-5 1-12-4-15-2-1-3-1-6-1z m266 154c-3 0-7 2-10 5l-24 43c-3 5-1 12 4 15 6 3 12 1 15-5l25-42c3-6 1-12-5-15-2-1-3-1-5-1z m-320-225c-1 0-2 0-3 0-5 1-10 7-8 13l20 71-71 18c-6 2-9 8-8 14 1 5 7 10 12 7l92-24-24-92c-1-4-6-7-10-7z m410 237c-1 0-2 0-4 0l-91 24 24 92c1 5 8 9 13 7 5-1 10-7 8-13l-19-71 71-18c5-1 9-8 7-13-1-5-5-8-9-8z"/>
<glyph unicode="&#122;" d="M256 42c-65 0-118 53-118 118 0 46 26 86 67 107l0 152c0 28 23 51 51 51 28 0 51-23 51-51l0-152c41-20 67-61 67-107 0-65-53-118-118-118z m0 407c-16 0-30-14-30-30l0-167-6-3c-37-15-61-51-61-90 0-53 44-97 97-97 53 0 97 44 97 97 0 39-23 75-61 90l-6 3 0 167c0 16-14 30-30 30z m-34-130l70 0 0-21-70 0z"/>
<glyph unicode="&#65;" d="M244 90l-169 0c-42 0-75 40-75 89 0 49 33 90 75 90l22 0c10 40 42 68 77 68 35 0 67-29 77-68 38-4 68-43 68-90 0-49-33-89-75-89z m-169 157c-30 0-54-30-54-68 0-37 24-68 54-68l169 0c30 0 54 31 54 68 0 38-24 68-54 68l-10 0-3 9c-5 34-30 60-57 60-28 0-52-25-58-60l-1-9z m294 2l132 0 0-22-132 0z m42-88l-65 77 65 77 17-15-55-62 55-62z m-103-70l133 0 0-22-133 0z m43-88l-66 77 66 77 17-15-55-62 55-62z m-45 262l-75 0-2 6c-10 27-31 44-54 44-21 0-42-15-52-39l-5-9-9 4c-30 14-48 46-48 83 0 49 33 90 74 90l23 0c9 40 40 68 77 68 36 0 67-29 76-68 39-5 69-42 70-89 0-50-33-90-75-90z m-60 21l60 0c30 0 53 31 53 68-1 37-25 68-54 68l-11 0-1 9c-6 35-31 60-58 60-29 0-53-25-58-60l-1-9-41 0c-29 0-53-31-53-68 0-24 10-46 27-59 15 26 39 41 66 41 30 0 56-18 71-50z"/>
<glyph unicode="&#66;" d="M426 191l0 21c36 0 65 29 65 64 0 31-24 59-55 63l-10 2 2 11c1 5 2 10 2 15 0 38-32 69-72 69-9 0-18-2-26-5l-12-5-3 12c-8 31-34 53-66 53-37 0-66-29-66-65l0-15-13 3c-3 1-7 1-11 1-33 0-61-27-61-60l0-16-14 0c-17 0-34-6-45-18-13-12-20-27-20-44 0-35 29-63 65-63l0-21c-48 0-86 37-86 84 0 23 9 44 26 59 15 14 34 22 54 23 3 43 38 76 82 76 1 0 2 0 3 0 6 43 43 76 87 76 38 0 70-24 83-58 7 2 16 4 23 4 52 0 93-41 93-91 0-3 0-7-1-9 36-10 63-43 63-82-1-46-39-84-87-84z m-56 66l21-7-74-224-20 7z m-193 0l21-7-74-224-20 7z m28-253l-17 13 74 106-70-5 121 159 17-12-93-123 68 4z"/>
<glyph unicode="&#67;" d="M239 141c-49 0-90 39-90 88 0 49 41 89 90 89 49 0 90-40 90-89 0-49-41-88-90-88z m0 156c-37 0-68-30-68-68 0-37 31-67 68-67 37 0 68 30 68 67 0 38-31 68-68 68z m101-57l102 0 0-21-102 0z m-299 0l96 0 0-21-96 0z m350 156l15-15-89-88-15 15z m-232-230l15-16-92-92-15 16z m77 156l-163 0c-41 0-73 31-73 69 0 39 33 70 73 70l20 0c10 30 40 51 74 51 35 0 64-21 75-51 37-3 66-33 66-70 0-38-33-69-72-69z m-163 117c-28 0-52-21-52-48 0-26 23-48 52-48l163 0c27 0 51 22 51 48 0 27-24 48-51 48l-11 0-2 9c-5 25-29 43-56 43-26 0-50-18-55-43l-2-9z m365-438l-163 0c-40 0-72 31-72 69 0 39 33 70 72 70l22 0c10 30 40 51 74 51 34 0 64-21 75-51 18-1 34-10 47-22 13-12 19-29 19-48-1-38-34-69-74-69z m-163 117c-28 0-51-21-51-48 0-26 22-48 51-48l163 0c28 0 52 22 52 48 0 12-5 24-13 32-10 10-24 16-38 16l-10 0-2 9c-6 24-29 43-56 43-26 0-50-19-55-43l-2-9z"/>
<glyph unicode="&#68;" d="M396 186l-280 0c-64 0-116 52-116 117 0 65 52 117 116 117l42 0c16 55 65 92 121 92 57 0 106-37 122-92 62-3 111-54 111-117 0-65-52-117-116-117z m-59 21l59 0c52 0 95 43 95 96 0 53-43 96-95 96l-12 0-2 8c-11 50-53 84-103 84-49 0-91-34-102-84l-2-8-59 0c-52 0-95-43-95-96 0-53 43-96 95-96z m108-45l17-12-30-41-17 13z m-61-85l17-13-29-40-18 13z m-161 85l18-12-29-41-18 12z m-60-86l18-12-29-41-18 12z m-24 86l17-12-29-41-17 12z m-60-85l17-13-29-40-18 13z m156-75l-15 17 73 64-66-7 111 101 15-15-64-59 68 8z"/>
<glyph unicode="&#69;" d="M109 259l-41 0 0 3c-40 10-68 47-68 91 0 51 39 93 89 93 4 0 8 0 11-1 13 39 58 67 110 67 31 0 60-10 82-27l-13-17c-18 14-42 23-69 23-47 0-86-26-91-60l-2-13-11 4c-6 3-11 3-17 3-37 0-68-34-68-72 0-36 25-67 59-71l7-1 22 0z m335-29l-267 0c-51 1-91 35-91 75 0 42 41 75 91 75 4 0 9 0 14-1-1 5-2 10-2 16 0 49 51 88 113 88 52 0 97-28 110-67 4 1 8 1 11 1 50 0 89-42 89-93 0-43-28-81-68-90z m-267 128c-37 0-69-24-69-53 0-29 31-52 69-53l248 0 7 1c34 4 59 35 59 71 0 39-31 72-68 72-5 0-11-1-17-2l-11-5-2 13c-5 34-44 60-91 60-50 0-92-30-92-67 0-9 2-17 8-26l12-23-25 8c-10 2-19 4-28 4z m-36-181l21-5-9-41-21 4z m-37-122l21-5-9-41-21 5z m176 122l21-5-9-41-21 4z m-37-122l21-5-10-41-21 5z m175 122l21-5-8-41-21 4z m-36-122l21-5-10-41-21 5z"/>
<glyph unicode="&#70;" d="M127 503l21-4-9-40-20 5z m-24-70l21-5-9-39-21 5z m168 71l21-5-10-39-21 5z m141 0l20-5-9-39-21 5z m-24-71l21-5-10-40-20 5z m114-241l-21 0c0 99-101 180-225 180-124 0-225-81-225-180l-21 0c0 111 111 202 246 202 135 0 246-91 246-202z m-313-193c-43 0-78 32-78 70l21 0c0-26 26-49 57-49 31 0 56 23 56 49l0 127 22 0 0-127c0-38-36-70-78-70z m56 426l22 0 0-42-22 0z m-234-218l490 0 0-21-490 0z"/>
<glyph unicode="&#71;" d="M426 179l0 22c36 0 65 28 65 64 0 30-24 58-55 62l-10 3 2 10c1 6 2 10 2 15 0 39-32 70-72 70-9 0-18-3-26-6l-12-5-4 13c-7 30-34 52-65 52-37 0-66-29-66-65l0-14-13 2c-3 1-7 1-11 1-33 0-61-26-61-60l0-16-14 0c-36 0-65-27-65-62 0-36 29-63 65-63l0-22c-48 0-86 38-86 85 0 43 35 80 79 84 2 42 38 76 82 76 1 0 2 0 3 0 6 42 43 75 87 75 37 0 70-23 83-57 7 2 16 3 23 3 52 0 93-41 93-91 0-3 0-6-1-8 36-11 63-44 63-82 0-47-38-86-86-86z m-148-162l-17 13 76 104-71-4 121 160 17-13-94-123 70 4z m-150 0l-17 13 75 104-72-4 122 160 17-13-94-123 69 4z"/>
<glyph unicode="&#72;" d="M70 0c-2 0-5 1-7 2-4 3-5 10-2 14l166 238-136-9c-5 0-8 2-10 6-2 3-2 7 0 10l139 246c1 3 4 5 8 5l169 0c4 0 7-2 9-6 3-4 1-8-1-11l-110-145 146 12c4 0 8-3 10-7 2-4 1-8-2-12l-371-340c-2-2-5-3-8-3z m180 277c4 0 7-2 9-5 2-3 2-7-1-12l-123-176 277 254-138-12c-4 0-8 3-11 6-2 3-2 8 2 11l110 148-140 0-126-223z"/>
<glyph unicode="&#73;" d="M256 42c-65 0-118 53-118 118 0 46 26 86 67 107l0 152c0 28 23 51 51 51 28 0 51-23 51-51l0-152c41-20 67-61 67-107 0-65-53-118-118-118z m0 407c-16 0-30-14-30-30l0-167-6-3c-37-15-61-51-61-90 0-53 44-97 97-97 53 0 97 44 97 97 0 39-23 75-61 90l-6 3 0 167c0 16-14 30-30 30z m-34-50l70 0 0-21-70 0z"/>
<glyph unicode="&#74;" d="M256 42c-65 0-118 53-118 118 0 46 26 86 67 107l0 152c0 28 23 51 51 51 28 0 51-23 51-51l0-152c41-20 67-61 67-107 0-65-53-118-118-118z m0 407c-16 0-30-14-30-30l0-167-6-3c-37-15-61-51-61-90 0-53 44-97 97-97 53 0 97 44 97 97 0 39-23 75-61 90l-6 3 0 167c0 16-14 30-30 30z m-36-176l72 0 0-21-72 0z"/>
<glyph unicode="&#75;" d="M135 0c-74 0-135 61-135 137 0 52 30 100 78 122l0 180c0 32 25 58 57 58 32 0 58-26 58-58l0-180c48-22 78-70 78-122 0-76-61-137-136-137z m0 476c-19 0-36-17-36-37l0-194-6-3c-44-17-72-59-72-105 0-64 52-116 114-116 63 0 115 52 115 116 0 46-28 88-72 106l-6 2 0 194c0 21-16 37-37 37z m233-159c-28 0-51 23-51 51 0 28 23 51 51 51 28 0 51-23 51-51 0-28-23-51-51-51z m0 81c-16 0-30-14-30-30 0-16 14-30 30-30 16 0 30 14 30 30 0 16-14 30-30 30z m-11 103l22 0 0-81-22 0z m11-96l-65 64 15 15 50-49 49 49 15-15z m-11-89l22 0 0-82-22 0z m-39-65l-15 15 65 65 64-65-15-15-49 50z m102 128l81 0 0-22-81 0z m49-76l-64 65 64 64 15-15-49-49 49-50z m-235 76l82 0 0-22-82 0z m32-76l-15 15 50 50-50 49 15 15 65-64z"/>
<glyph unicode="&#76;" d="M180 187c-7 0-15 1-22 4-15 5-27 17-33 32-7 15-7 31 0 46 10 28 70 61 83 67l11 6 4-11c2-8 26-77 15-106-11-23-33-38-58-38z m26 123c-25-13-57-36-62-50-4-9-4-20 0-30 4-9 12-17 21-20 5-2 10-2 15-2 16 0 31 10 38 25 5 13-4 51-12 77z m148-252c-5 0-11 1-16 3-22 8-34 34-25 56 8 21 49 42 57 46l11 6 4-12c3-9 18-54 10-73-7-16-23-26-41-26z m15 80c-16-10-33-22-36-29-4-11 2-25 13-29 11-4 24 1 28 12 5 7 0 27-5 46z m57 41l0 22c36 0 65 28 65 64 0 30-24 58-55 62l-10 3 2 10c1 6 2 10 2 15 0 39-32 70-72 70-9 0-18-3-26-6l-12-5-4 13c-7 30-34 52-65 52-37 0-66-29-66-65l0-14-13 2c-3 1-7 1-11 1-33 0-61-26-61-60l0-16-14 0c-36 0-65-27-65-62 0-36 29-63 65-63l0-22c-48 0-86 38-86 85 0 43 35 80 79 84 2 42 38 76 82 76 1 0 2 0 3 0 6 42 43 75 87 75 37 0 70-23 83-57 7 2 16 3 23 3 52 0 93-41 93-91 0-3 0-6-1-8 36-11 63-44 63-82 0-47-38-86-86-86z m-221-162l-17 13 74 104-70-4 121 160 17-13-93-123 68 4z"/>
<glyph unicode="&#77;" d="M266 0c-126 0-235 90-260 213-24 125 43 250 161 298 4 2 8 1 11-2 3-3 4-8 2-12-19-46-24-95-14-142 23-113 123-196 239-196 16 0 32 2 48 5 17 3 31 8 43 13 4 2 9 1 12-2 3-3 4-8 2-12-33-82-106-141-192-158-17-3-35-5-52-5z m-115 481c-93-50-146-157-124-263 22-113 122-197 239-197 16 0 32 2 48 6 71 14 132 58 166 121-6-2-14-3-22-5-17-3-36-5-53-5-126 0-234 89-260 213-8 43-6 87 6 130z"/>
<glyph unicode="&#78;" d="M109 254l-30 0c-2 0-4 1-6 2-42 9-73 48-73 94 0 52 39 95 89 95 4 0 8 0 11-1 13 39 58 68 110 68 32 0 61-10 82-28 5-4 6-10 1-15-4-4-10-5-15-1-18 15-42 24-69 24-46 0-86-27-91-61 0-3-2-6-5-8-3-2-6-2-8-1-6 3-11 3-18 3-36-2-66-35-66-75 0-37 26-69 59-74 1 0 2 0 3-1l26 0c6 0 10-4 10-10 0-7-4-11-10-11z m324-29l-256 0c-51 0-91 33-91 76 0 41 41 76 91 76 4 0 9 0 14-2-1 6-2 12-2 18 0 50 51 90 113 90 52 0 97-29 110-68 3 1 7 1 11 1 50 0 89-43 89-95 0-46-31-85-73-94-2-1-4-2-6-2z m-256 130c-38 0-69-24-69-54 0-31 31-55 69-55l252 0c1 0 2 1 3 1 34 5 59 37 59 74 0 41-30 74-68 74-5 0-11-1-17-2-3-2-6-2-8 1-3 2-4 4-5 7-5 34-45 61-91 61-50 0-92-31-92-69 0-10 2-19 8-27 2-4 2-9-1-12-4-3-8-4-12-3-10 2-19 4-28 4z m77-355c-33 0-60 26-60 59 0 28 45 117 50 128 3 7 15 7 19 0 6-10 51-100 51-128 0-32-27-59-60-59z m0 158c-18-36-39-84-39-99 0-22 18-38 39-38 21 0 38 17 38 38 0 15-20 62-38 99z"/>
<glyph unicode="&#79;" d="M109 271l-41 0 0 3c-39 10-68 45-68 87 0 49 39 88 89 88 4 0 8 0 11-1 12 37 57 64 110 64 30 0 60-9 82-26l-13-17c-19 14-43 22-69 22-46 0-86-25-91-56l-1-10-10 2c-7 0-13 1-19 1-38 0-68-30-68-67 0-35 26-63 59-68l7-1 22 0z m335-26l-267 0c-51 0-91 31-91 71 0 39 41 71 91 71 4 0 10 0 14-1-1 5-2 10-2 15 0 47 51 84 113 84 52 0 97-26 109-63 4 1 8 1 12 1 50 0 89-39 89-88 0-42-29-77-68-86z m-267 121c-37 0-69-24-69-50 0-27 31-49 69-49l248 0 7 1c34 4 59 34 59 67 0 37-30 67-68 67-5 0-11-1-17-2l-11-4-2 13c-5 30-45 55-91 55-50 0-92-28-92-63 0-7 2-16 7-23l13-22-24 6c-9 2-19 4-29 4z m157-361l-19 11 50 92-87-29 67 129 19-11-43-82 89 31z m-202 0l-19 11 50 92-87-29 67 129 19-11-44-82 90 31z"/>
<glyph unicode="&#80;" d="M407-1l-245 0c-57 0-104 45-104 100 0 56 47 100 104 100l36 0c14 45 58 77 108 77 50 0 94-32 108-77 55-3 98-45 98-100 0-55-47-100-105-100z m-245 179c-46 0-83-35-83-79 0-44 37-79 83-79l245 0c46 0 84 35 84 79 0 44-37 79-84 79l-2 0c-5 0-9 3-10 9-9 39-46 68-89 68-43 0-80-29-88-68-1-6-6-9-11-9z m-67-28c-2 0-4 1-6 3-44 30-74 75-85 128-19 97 33 194 125 230 4 1 9 1 12-2 3-3 4-8 2-12-14-35-18-71-10-107 12-60 55-112 114-135 4-1 7-4 7-9 1-4-1-7-4-9-16-12-28-30-32-50-1-6-6-9-11-9l-45 0c-22 0-44-8-60-24-2-3-4-4-7-4z m20 331c-68-38-105-117-89-196 9-44 33-82 69-110 19 16 43 24 68 24l36 0c6 16 14 31 25 43-59 29-99 81-112 144-6 31-5 63 3 95z m272-264c-3 0-5 1-7 3-1 1-3 3-5 4-1 1-1 2-2 3l-7 8c-15 12-37 21-60 21-19 0-40-7-56-19-4-2-7-3-11-1-62 24-109 77-125 139-1 6 1 11 7 13 8 3 18 6 29 6l31 0c13 40 52 68 96 68 44 0 84-29 96-68 48-4 87-42 87-90 0-41-30-76-71-86 0-1-1-1-2-1z m-81 60c28 0 55-9 75-26l7-8c1-1 2-2 2-3 28 10 48 35 48 64 0 37-32 68-71 68l-2 0c-6 0-10 3-11 9-7 35-40 60-77 60-37 0-69-26-76-60-2-6-6-9-11-9l-40 0c-4 0-8 0-12-1 16-50 54-92 103-113 20 12 43 19 65 19z"/>
<glyph unicode="&#81;" d="M182 201c-5 0-10 1-16 3-10 4-18 11-22 21-4 10-4 21 0 32 7 17 43 37 53 43 4 1 7 2 9 1 3-1 5-3 6-7 5-11 16-49 9-67-7-16-22-26-39-26z m13 73c-15-9-30-20-32-25-2-6-2-11 0-15 2-5 7-9 11-11 2-1 5-1 7-1 9 0 15 4 17 12 0 0 0 1 1 1 4 5 2 23-4 39z m134-233c-6 0-11 1-16 3-22 8-32 32-24 53 8 17 43 37 53 43 4 1 7 2 9 1 3-1 5-3 6-7 4-7 17-48 9-67-5-16-20-26-37-26z m12 73c-15-9-30-20-32-25-4-11 1-22 12-26 2-1 5-1 8-1 8 0 14 4 17 12 0 0 0 1 0 1 3 6 1 23-5 39z m-230-73c-5 0-11 1-16 3-11 4-18 11-22 21-5 10-5 21 0 32 7 17 42 37 53 43 3 1 6 2 8 0 4-1 6-3 7-7 3-7 16-48 8-67-5-15-21-25-38-25z m13 73c-15-9-30-20-32-25-2-6-2-11 0-15 2-5 6-9 10-11 3-1 6-1 8-1 8 0 15 4 17 12 4 6 1 24-3 40z m-43 42c-44 0-80 35-80 78 0 40 32 73 73 77 3 39 36 70 76 70 1 0 1 0 3 0 5 39 39 69 81 69 35 0 65-21 76-52 8 2 15 2 22 2 31 0 61-18 77-46 3-5 1-12-5-15-5-3-11-1-15 4-11 22-34 36-57 36-8 0-17-2-25-5-3-1-6-1-8 1-4 2-5 5-6 8-5 27-30 47-58 47-33 0-61-27-61-59l0-1c0-3-1-6-4-8-3-3-7-4-10-3-3 2-5 2-10 2-31 0-55-25-55-55l0-4c0-7-4-11-11-11l-3 0c-32 0-59-25-59-56 0-31 27-57 59-57 6 0 11-4 11-11 0-6-5-11-11-11z m313-3c-7 0-11 4-11 10 0 7 4 11 11 11 32 0 59 27 59 57 0 15-6 30-17 41-4 4-4 11 0 15 5 4 11 4 15 0 15-15 24-35 24-56 0-43-37-78-81-78z m-212-153c-2 0-4 1-6 2-4 3-6 10-2 15l68 95-43-2c-4 0-8 2-9 5-2 3-1 9 1 12l99 130c3 4 11 5 15 2 4-3 5-10 2-15l-85-112 43 2c4 0 7-2 9-5 2-3 2-7-1-12l-81-113c-3-3-6-4-10-4z m200 256c-42 0-80 19-106 53-3 5-3 9 0 13 3 4 8 5 12 4 7-2 16-3 27-3 60 0 110 49 110 109 0 22-8 45-22 64-3 3-3 9 0 12 2 3 7 5 11 4 57-15 98-66 98-126 0-71-59-130-130-130z m-68 45c19-15 42-24 68-24 60 0 109 49 109 109 0 40-22 76-55 94 7-16 10-32 10-49 0-72-59-130-132-130 1 0 1 0 0 0z"/>
<glyph unicode="&#82;" d="M10 170l-4 13c-24 103 22 213 112 267 38 23 79 34 121 34 60 0 115-22 157-64l9-9z m229 294c-38 0-76-11-110-31-78-47-119-139-104-228l346 210c-36 31-83 49-132 49z m143-437c-7 0-13 1-18 2-18 5-33 17-42 34l-128 231 19 11 128-231c7-12 16-21 29-24 13-3 27-1 40 7 24 14 34 46 20 71l18 11c19-34 7-80-27-102-14-6-26-10-39-10z m-30 346l133 0 0-21-133 0z m-37-82l134 0 0-21-134 0z m53-82l133 0 0-21-133 0z"/>
<glyph unicode="&#83;" d="M9 165l-4 15c-21 99 27 206 118 262 38 23 82 36 126 36 57 0 109-21 149-60l9-9z m240 290c-40 0-79-11-116-33-78-47-121-137-110-223l349 213c-34 29-77 43-123 43z m125-421c-6 0-11 1-18 2-17 5-32 16-40 32l-123 222 19 11 123-222c6-11 16-18 28-21 12-4 26-1 39 6 25 15 35 47 21 70l19 11c19-34 6-77-30-98-11-9-25-13-38-13z m-51 260l136 0 0-21-136 0z m136-20l0 21c18 0 32 14 32 32 0 19-14 32-32 32l0 22c30 0 53-24 53-54 0-29-23-53-53-53z m-189-23l111 0 0-22-111 0z m111-108l0 21c18 0 32 14 32 32 0 18-14 32-32 32l0 22c30 0 53-24 53-54 0-30-23-53-53-53z"/>
<glyph unicode="&#84;" d="M426 208l0 21c36 0 65 27 65 60 0 30-24 54-55 59l-10 2 2 11c1 5 2 9 2 13 0 37-32 65-72 65-8 0-18-2-27-4l-11-3-2 12c-9 26-36 47-67 47-37 0-66-28-66-61l0-14-13 2c-3 1-7 1-11 1-33 0-61-24-61-55l0-15-14 0c-36 0-65-27-65-59 0-32 29-59 65-59l0-21c-48 0-86 36-86 80 0 42 35 77 79 80 3 40 38 71 82 71 1 0 2 0 3 0 7 40 43 71 87 71 37 0 70-22 83-54 62 15 116-29 116-84 0-2 0-5 0-7 36-10 62-42 62-78 0-45-38-81-86-81z m-321 81l320 0 0-21-320 0z m49-60l216 0 0-21-216 0z m-28-59l172 0 0-22-172 0z m57-49l126 0 0-22-126 0z m63-55l87 0 0-21-87 0z m-12-45l43 0 0-21-43 0z"/>
<glyph unicode="&#85;" d="M256 124c-73 0-132 59-132 132 0 73 59 132 132 132 73 0 132-59 132-132 0-73-59-132-132-132z m0 243c-61 0-111-50-111-111 0-61 50-111 111-111 61 0 111 50 111 111 0 61-50 111-111 111z m-11 134l22 0 0-87-22 0z m0-403l22 0 0-87-22 0z m169 169l87 0 0-22-87 0z m-403 0l87 0 0-22-87 0z m411 170l15-15-61-62-16 16z m-286-285l16-16-62-61-15 15z m240 0l61-62-15-15-62 61z m-286 285l62-61-16-16-61 62z"/>
<glyph unicode="&#86;" d="M109 270l-41 0 0 3c-39 9-68 44-68 86 0 50 39 90 89 90 4 0 8 0 12-1 12 37 57 64 109 64 30 0 60-9 82-26l-13-17c-19 14-43 22-69 22-46 0-86-25-91-57l-2-13-11 5c-6 1-11 2-17 2-38 0-68-31-68-69 0-34 26-64 59-67l9-1 19 0 0-21z m66-26c-49 0-89 31-89 71 0 39 41 71 91 71 4 0 10 0 14-1-1 5-2 11-2 16 0 48 50 85 113 85 52 0 97-26 109-64 4 1 8 1 12 1 50 0 89-40 89-89 0-43-29-78-68-87l0-2-11-1z m2 121c-38 0-69-23-69-50 0-28 29-49 67-49l253 0 4 1c33 3 59 33 59 67 0 37-30 68-68 68-5 0-11-1-17-2l-11-4-2 13c-5 32-45 56-91 56-50 0-92-29-92-64 0-8 2-17 7-24l13-22-24 6c-9 2-19 4-29 4z m-100-163l21-4-9-40-21 5z m-37-116l21-5-9-40-21 5z m171 43l21-5-10-39-20 5z m211 24c-19 0-38 2-54 11-4 3-9 6-12 9-16 12-22 16-51 16-17 0-34-3-52-6-45-6-97-14-134 23l15 15c29-30 71-24 115-16 18 3 37 5 55 5 34 0 44-5 63-20 3-2 6-5 11-8 12-8 34-8 55-7 4 0 9 0 13 0l0-21c-4 0-9 0-12 0-3-1-7-1-12-1z m0-76c-19 0-38 2-53 12-4 3-8 5-12 8-16 12-22 16-51 16l0 21c34 0 44-5 63-20 3-2 6-5 11-7 13-9 34-9 55-8 4 0 9 0 13 0l0-21c-4 0-9 0-12 0-5-1-9-1-14-1z m0-76c-19 0-38 2-54 12-4 3-9 5-12 8-16 12-22 16-51 16-17 0-34-3-52-5-45-6-97-15-134 22l15 15c29-30 71-23 115-16 18 4 37 6 55 6 34 0 44-6 63-21 3-2 6-5 11-7 12-9 34-9 55-8 4 0 9 0 13 0l0-21c-4 0-9 0-12 0-3-1-7-1-12-1z"/>
<glyph unicode="&#87;" d="M256 0c-60 0-109 50-109 111 0 30 12 59 33 79l0 245c-1 20 7 40 22 54 13 14 34 23 54 23 43 0 77-34 77-77l0-246c21-22 33-50 33-79-1-61-50-110-110-110z m0 491c-15 0-29-7-39-17-11-11-16-25-15-39l0-255-4-3c-19-17-29-40-29-67 0-49 39-90 87-90 48 0 87 40 89 89 0 24-11 49-30 67l-4 3 0 256c0 31-24 56-55 56z m0-443c-31 0-57 26-57 58 0 32 26 57 57 57 31 0 57-25 57-57 0-32-26-58-57-58z m0 94c-19 0-35-16-35-36 0-21 16-37 35-37 19 0 35 16 35 37 0 20-16 36-35 36z m-11 294l22 0 0-274-22 0z m144 21l46 0 0-22-46 0z m0-69l46 0 0-21-46 0z m0-67l112 0 0-21-112 0z m0-68l46 0 0-22-46 0z m-312 204l46 0 0-22-46 0z m0-69l46 0 0-21-46 0z m-66-67l112 0 0-21-112 0z m66-68l46 0 0-22-46 0z"/>
<glyph unicode="&#88;" d="M259 0c-143 0-259 116-259 258 0 124 90 232 212 255 5 1 10-1 12-5 2-5 1-10-2-13-46-46-72-107-72-170 0-130 107-236 238-236 15 0 30 1 43 3 4 1 10-2 11-6 2-4 1-9-3-12-46-48-112-74-180-74z m-76 483c-96-33-162-122-162-225 0-130 107-237 238-237 51 0 102 16 142 46-4 0-8 0-13 0-143 0-259 116-259 258 0 58 19 112 54 158z m191-141c-2 0-4 1-6 3-3 2-5 6-4 10l8 48-35 34c-3 4-4 8-3 11 1 4 4 6 8 7l49 7 22 44c2 4 5 6 9 6 5 0 8-2 10-6l22-44 49-7c4-1 7-3 9-7 1-4 0-9-3-11l-35-34 8-48c1-4-1-8-4-10-3-3-8-4-12-2l-44 24-42-24c-2-1-3-1-6-1z m48 47c3 0 4 0 6-1l30-16-6 32c-1 3 0 8 3 10l23 23-33 5c-3 0-7 2-9 5l-15 30-12-29c-2-3-5-5-9-6l-32-5 23-23c3-2 4-7 4-10l-6-32 29 15c1 2 2 2 4 2z m-123-211c-2 0-5 1-7 2-3 2-5 7-4 11l6 35-25 25c-3 3-4 7-3 10 1 5 4 7 8 8l35 5 17 32c3 3 6 5 10 5 4 0 7-2 10-6l16-32 36-5c4-1 7-3 8-8 1-4 0-8-3-10l-25-25 5-35c1-4-1-9-4-11-4-2-8-2-11-1l-31 17-32-17c-3 0-4 0-6 0z m37 41c2 0 3 0 5-1l17-10-3 19c-1 3 1 7 3 10l14 14-20 3c-3 0-6 3-7 6l-9 18-10-18c-1-3-4-5-7-5l-20-4 15-14c2-2 3-7 3-10l-3-19 18 10c1 1 2 1 4 1z"/>
<glyph unicode="&#89;" d="M418 143l0 21c35 0 64 27 64 60 0 29-23 54-53 59l-11 2 2 10c1 5 2 10 2 14 0 37-31 65-69 65-8 0-18-2-28-4l-11-4-3 12c-5 28-32 49-62 49-37 0-66-28-66-61l0-14-12 2c-4 1-7 1-11 1-33 0-60-24-60-56l0-15-15 0c-35 0-63-27-63-59 0-32 28-59 63-59l0-21c-47 0-84 36-84 80 0 42 34 76 77 80 3 41 37 72 81 72 1 0 2 0 3 0 7 40 42 71 85 71 38 0 70-22 82-55 60 13 114-29 114-84 0-2 0-5 0-7 35-10 62-42 62-78-2-45-40-81-87-81z m-355-37l-10 19c20 10 41 14 62 16 23 2 46 2 67 3 16 0 33 1 49 1 32 2 73 6 109 24l2 1c4 2 7 3 9 5l1 1c3 3 5 6 7 11 8 19 2 43-13 54-15 11-36 13-49 4-7-4-9-14-7-22 2-9 11-15 17-15l-2-21c-17 1-32 15-36 32-4 17 2 35 16 46 23 13 51 9 72-6 23-17 32-50 23-79-3-8-8-15-14-20-4-4-10-7-14-10l-3-1c-40-19-83-23-118-25-17-1-34-1-50-1-21 0-43-1-66-2-16-4-35-6-52-15z m291-106c-12 0-22 2-32 7-16 8-25 20-28 34-3 14 7 33 21 39 12 7 31 3 42-10l-16-13c-4 5-11 6-17 4-6-3-9-11-8-16 2-10 10-15 17-18 13-7 29-8 41-2 5 2 8 4 12 7 8 6 9 21 3 33-6 14-21 21-32 25-15 5-31 4-44 4-34-2-68-8-101-16-5-1-10-3-17-4-19-6-38-10-58-9l1 21c17-1 35 5 53 9 5 1 12 3 17 4 34 9 69 14 105 16 16 1 35 1 53-5 15-5 34-15 45-35 9-21 6-45-9-59-5-4-11-7-17-11-13-3-22-5-31-5z m82 292l-7 21c36 12 61 48 61 87 1 49-39 91-88 91-45 0-82-32-88-78l-22 3c9 55 55 96 110 96 61 0 110-51 110-113 0-48-30-92-76-107z"/>
<glyph unicode="&#90;" d="M116 21l83 0 0-21-83 0z m-43 98l140 0 0-21-140 0z m43 99l181 0 0-22-181 0z m40 98l246 0 0-22-246 0z m0 98l327 0 0-21-327 0z m-145 98l490 0 0-21-490 0z"/>
<glyph unicode="&#48;" d="M256 245c-6 0-11 5-11 11l0 237c0 6 5 10 11 10 6 0 11-4 11-10l0-237c0-6-5-11-11-11z m0 185c-3 0-5 1-7 3l-53 52c-4 5-4 11 0 15 5 5 11 5 15 0l45-45 45 45c4 5 10 5 15 0 4-4 4-10 0-15l-53-52c-2-2-4-3-7-3z m0-75c-3 0-5 1-7 3l-82 81c-4 5-4 11 0 15 5 5 11 5 15 0l74-73 74 73c4 5 10 5 15 0 4-4 4-10 0-15l-82-81c-2-2-4-3-7-3z m52-346c-3 0-5 1-7 3l-45 45-45-45c-4-5-10-5-15 0-4 4-4 10 0 15l53 52c4 4 10 4 14 0l53-52c4-5 4-11 0-15-2-2-5-3-8-3z m-133 45c-3 0-5 1-8 4-4 4-4 10 0 15l82 81c2 2 4 3 7 3 3 0 5-1 7-3l82-81c4-5 4-11 0-15-5-5-11-5-15 0l-74 73-74-73c-2-3-4-4-7-4z m81-45c-6 0-11 4-11 10l0 237c0 6 5 11 11 11 6 0 11-5 11-11l0-237c0-6-5-10-11-10z m0 236c-2 0-3 0-5 1l-205 119c-5 3-7 9-4 15 2 5 9 6 15 4l204-118c6-4 7-10 5-15-3-4-7-6-10-6z m-231 74c-5 0-9 3-11 7-1 6 2 12 7 13l61 16-16 61c-1 6 2 12 8 14 6 1 11-2 13-8l20-70c1-3 0-5-1-9-1-2-5-4-7-5l-71-19c-1 0-2 0-3 0z m25-48c-4 0-9 3-11 7-1 6 3 12 8 13l100 26-26 100c-2 5 2 12 7 13 5 1 12-2 13-8l30-111c1-3 0-5-1-8-1-2-5-4-7-5l-110-27c-1 0-2 0-3 0z m385-189c-4 0-8 3-10 8l-20 70c-1 3 0 5 1 9 1 2 5 4 7 5l71 19c6 1 12-2 13-7 1-6-2-12-7-13l-61-16 16-60c1-5-2-12-8-13 0-2-1-2-2-2z m-54-2c-4 0-9 3-11 7l-30 111c-1 4 0 6 1 9 1 3 5 4 7 5l111 29c5 1 11-2 12-7 2-6-2-12-7-13l-100-26 26-100c1-5-2-12-7-13 0-2-1-2-2-2z m80 47c-2 0-3 0-6 1l-204 118c-6 4-7 10-5 15 3 6 10 7 15 5l205-119c5-3 7-9 4-15-2-3-6-5-9-5z m-410 0c-3 0-7 2-9 5-4 6-1 12 4 15l205 119c5 3 11 1 15-5 3-5 1-11-5-15l-204-118c-3-1-4-1-6-1z m26-45c-1 0-2 0-3 0-6 1-9 8-8 13l16 60-61 17c-5 1-8 7-7 13 1 5 7 8 13 7l71-19c3-1 5-2 7-6 1-3 2-4 2-7l-20-70c-2-5-6-8-10-8z m54-2c-1 0-2 0-3 0-5 1-9 7-7 13l26 100-100 26c-5 1-10 7-8 12 3 6 8 10 13 8l111-29c3-1 6-2 7-5 1-3 2-6 1-9l-30-111c-1-2-6-5-10-5z m356 239c-1 0-2 0-3 0l-71 19c-3 1-6 2-7 5-1 3-1 6-1 9l20 70c1 6 7 9 12 8 6-1 9-8 8-13l-16-60 61-16c5-1 8-7 7-12-1-7-5-10-10-10z m-25-48c-1 0-2 0-3 0l-111 29c-3 1-6 2-7 5-1 3-2 5-1 9l30 111c1 5 8 8 13 7 5-1 8-7 7-13l-26-100 100-26c5-1 10-7 7-12 0-7-5-10-9-10z m-206-26c-3 0-7 2-10 6-3 5-1 11 5 15l204 118c6 3 12 1 15-4 4-6 1-12-4-15l-205-119c-2-1-3-1-5-1z"/>
<glyph unicode="&#49;" d="M396 185l-37 0 0 21 37 0c52 0 95 43 95 96 0 53-43 96-95 96l-12 0-2 8c-11 51-53 85-103 85-49 0-91-34-102-84l-2-8-59 0c-52 0-95-43-95-96 0-25 10-48 27-66l-16-15c-21 22-33 51-33 81 0 65 52 117 116 117l42 0c17 55 66 92 122 92 57 0 106-37 122-93 62-3 111-54 111-117 0-65-52-117-116-117z m-151 187l22 0 0-129-22 0z m57-18l13-17-105-76-13 18z m-94-1l106-73-12-18-106 73z m-67-158l21 0 0-184-21 0z m78-31l13-17-148-107-13 18z m-139-1l153-104-12-17-153 103z"/>
<glyph unicode="&#50;" d="M256 124c-73 0-132 59-132 132 0 73 59 132 132 132 73 0 132-59 132-132 0-73-59-132-132-132z m0 243c-61 0-111-50-111-111 0-61 50-111 111-111 61 0 111 50 111 111 0 61-50 111-111 111z m0 36c-6 0-11 4-11 11l0 87c0 7 5 11 11 11 6 0 11-4 11-11l0-87c0-7-5-11-11-11z m0-403c-6 0-11 4-11 11l0 87c0 7 5 11 11 11 6 0 11-4 11-11l0-87c0-7-5-11-11-11z m245 245l-87 0c-7 0-11 5-11 11 0 6 4 11 11 11l87 0c7 0 11-5 11-11 0-6-4-11-11-11z m-403 0l-87 0c-7 0-11 5-11 11 0 6 4 11 11 11l87 0c7 0 11-5 11-11 0-6-4-11-11-11z m270 112c-3 0-5 1-7 4-5 4-5 10 0 14l61 62c5 5 11 5 15 0 5-4 5-10 0-15l-62-61c-2-3-4-4-7-4z m-286-286c-3 0-5 2-7 4-5 4-5 10 0 15l62 61c4 5 10 5 14 0 5-4 5-10 0-14l-61-62c-3-2-5-4-8-4z m348 0c-3 0-5 2-8 4l-61 62c-5 4-5 10 0 14 4 5 10 5 14 0l62-61c5-5 5-11 0-15-2-2-4-4-7-4z m-286 286c-3 0-5 1-7 4l-62 61c-5 5-5 11 0 15 4 5 10 5 15 0l61-62c5-4 5-10 0-14-2-3-4-4-7-4z m173 34c-1 0-3 0-4 2-6 2-9 8-6 13l33 81c2 6 9 9 14 6 5-3 9-9 5-14l-33-81c-1-4-5-7-9-7z m-155-373c-1 0-3 0-4 1-5 2-9 9-5 14l33 81c2 5 8 9 13 5 6-2 9-8 6-13l-33-81c-1-5-6-7-10-7z m321 133c-1 0-3 0-4 2l-81 33c-5 2-9 8-5 13 3 6 8 9 13 6l81-33c6-2 9-9 6-14-1-4-6-7-10-7z m-373 155c-1 0-3 0-4 1l-81 33c-6 2-9 9-6 14 3 5 9 9 14 5l81-33c5-2 9-8 5-13-1-5-5-7-9-7z m292 0c-4 0-8 2-9 7-3 5 0 11 5 13l80 33c5 3 12 0 14-5 2-5 0-12-6-14l-80-33c-1-1-3-1-4-1z m-372-155c-4 0-9 3-10 7-2 5 0 12 6 14l80 33c5 2 11 0 13-6 3-5 0-11-5-13l-80-33c-1-2-3-2-4-2z m320-132c-4 0-9 2-10 7l-33 80c-2 5 0 11 6 13 5 3 11 0 13-5l33-80c3-5 0-12-5-14-1-1-3-1-4-1z m-155 372c-4 0-8 3-9 7l-33 80c-3 5 0 12 5 14 5 2 12 0 14-6l33-80c2-5 0-11-6-13-1-2-3-2-4-2z"/>
<glyph unicode="&#51;" d="M396 0c-64 0-117 50-117 111 0 30 13 59 36 79l0 245c0 43 36 77 81 77 45 0 81-34 81-77l0-246c22-22 35-49 35-79 0-61-52-110-116-110z m0 491c-32 0-60-26-60-56l0-255-3-3c-20-17-32-40-32-66 0-49 42-90 95-90 52 0 95 40 95 89 0 25-11 49-32 66l-4 3 0 256c0 30-27 56-59 56z m0-443c-33 0-61 26-61 58 0 32 28 57 61 57 33 0 61-25 61-57 0-32-28-58-61-58z m0 94c-22 0-40-16-40-36 0-21 18-37 40-37 21 0 39 16 39 37 0 20-18 36-39 36z m-11 294l21 0 0-274-21 0z m-68-235l-214 0c-56 0-104 39-104 85 0 48 46 85 104 85 7 0 13 0 20-1-2 7-4 14-4 21 0 58 58 103 132 103 25 0 49-5 70-16l15-9-11-18-14 8c-17 8-38 14-60 14-62 0-110-36-110-82 0-10 3-22 8-30l14-23-25 8c-13 3-24 5-33 5-46 0-84-29-84-64 0-35 39-64 84-64l213 0 0-22z"/>
<glyph unicode="&#52;" d="M417 246l-299 0c-55 0-100 36-100 78 0 43 45 78 100 78 6 0 11 0 16-1-1 6-2 12-2 18 0 52 56 93 126 93 59 0 109-30 122-70 5 1 10 1 16 1 54 0 98-44 98-98 0-47-32-86-77-95z m-299 135c-43 0-79-26-79-57 0-31 36-56 79-56l279 0 8 1c40 4 68 36 68 76 0 42-35 76-77 76-8 0-14-1-21-3l-11-3-2 12c-6 35-52 64-104 64-57 0-104-32-104-72 0-9 3-19 7-26l16-25-28 7c-10 4-21 6-31 6z m-28-196l21-4-9-37-21 5z m-34-106l20-5-8-36-21 4z m157 39l21-5-8-36-21 5z m194 21c-17 0-35 1-49 10-3 2-6 5-9 7-16 11-20 15-48 15-15 0-32-2-49-6-44-6-90-12-123 22l15 15c27-27 65-22 105-15 17 2 35 5 52 5 32 0 41-5 60-19 3-2 5-4 8-7 12-7 32-7 50-6 4 0 9 0 13 0l0-21c-4 0-7 0-12 0-3 0-7 0-13 0z m0-70c-17 0-35 1-49 11-3 2-6 4-9 6-16 12-20 15-48 15l0 22c32 0 41-6 60-20 3-2 5-4 8-6 12-7 32-7 50-6 4 0 9 0 13 0l0-22c-4 0-7 0-12 0-3 0-7 0-13 0z m0-68c-17 0-35 1-49 11-3 2-6 4-9 6-16 12-20 15-48 15-15 0-32-2-49-5-44-7-90-13-123 21l15 15c27-27 65-21 105-15 17 2 35 5 52 5 32 0 41-5 60-19 3-2 5-4 8-6 12-8 32-8 50-7 4 0 9 0 13 0l0-21c-4 0-7 0-12 0-3 0-7 0-13 0z"/>
<glyph unicode="&#53;" d="M185 233c-54 0-98 42-98 96 0 53 44 96 98 96 53 0 97-43 97-96 0-54-44-96-97-96z m0 170c-42 0-76-33-76-74 0-42 34-75 76-75 41 0 75 33 75 75 0 41-34 74-75 74z m0 26c-7 0-11 4-11 10l0 62c0 7 4 11 11 11 6 0 10-4 10-11l0-62c0-6-4-10-10-10z m0-260c-7 0-11 4-11 10l0 39c0 6 4 10 11 10 6 0 10-4 10-10l0-39c0-6-4-10-10-10z m172 149l-62 0c-6 0-10 4-10 11 0 6 4 10 10 10l62 0c7 0 11-4 11-10 0-7-4-11-11-11z m-284 0l-62 0c-7 0-11 4-11 11 0 6 4 10 11 10l62 0c6 0 10-4 10-10 0-7-4-11-10-11z m189 79c-3 0-5 1-7 3-4 4-4 11 0 15l44 44c4 4 10 4 15 0 4-5 4-11 0-15l-44-44c-2-2-4-3-8-3z m-200-201c-3 0-5 1-8 3-4 5-4 11 0 15l44 44c4 4 11 4 15 0 4-4 4-11 0-15l-44-44c-2-2-4-3-7-3z m44 201c-4 0-6 1-8 3l-44 44c-4 4-4 10 0 15 5 4 11 4 15 0l44-44c4-4 4-11 0-15-2-2-4-3-7-3z m120 24c-1 0-3 0-4 1-5 3-8 9-5 14l24 57c2 5 9 7 14 5 5-2 7-8 5-14l-24-56c-1-5-6-7-10-7z m-109-262c-1 0-3 0-4 1-5 2-7 9-5 14l24 56c2 6 9 8 14 6 5-2 8-9 5-14l-24-57c-1-4-5-6-10-6z m228 94c-2 0-4 0-5 1l-57 23c-6 2-9 9-6 14 4 6 9 9 14 6l58-24c5-2 8-8 5-14-1-4-5-6-9-6z m-264 108c-1 0-3 0-4 1l-58 23c-5 2-8 9-5 14 2 5 8 8 14 5l57-23c6-2 9-9 6-14-1-4-6-6-10-6z m206 0c-4 0-9 2-10 6-2 5 0 12 6 14l57 23c6 2 12 0 14-5 2-5 0-12-5-14l-58-23c-1-1-3-1-4-1z m-264-108c-4 0-8 2-9 6-2 6 0 12 5 14l58 24c5 2 12 0 14-6 2-5 0-12-6-14l-57-23c-1-1-3-1-5-1z m118 168c-4 0-9 2-10 7l-23 56c-2 6 0 12 5 14 5 2 12 0 14-5l23-57c3-5 0-11-5-14-1-1-3-1-4-1z m270-421l-234 0c-54 0-99 43-99 95 0 52 45 95 99 95l34 0c14 43 56 72 104 72 48 0 89-29 103-72 26-1 50-12 67-30 17-18 26-41 25-65 0-52-45-95-99-95z m-234 169c-43 0-78-34-78-74 0-41 35-74 78-74l234 0c42 0 78 33 78 74 1 19-6 36-20 50-14 15-35 24-56 24l-3 0c-6 0-10 3-11 8-9 37-44 64-84 64-41 0-76-27-85-64-1-5-5-8-10-8z"/>
<glyph unicode="&#54;" d="M396 185l-37 0 0 21 37 0c52 0 95 43 95 96 0 53-43 96-95 96l-12 0-2 8c-11 51-53 85-103 85-49 0-91-34-102-84l-2-8-59 0c-52 0-95-43-95-96 0-25 10-48 27-66l-16-15c-21 22-33 51-33 81 0 65 52 117 116 117l42 0c17 55 66 92 122 92 57 0 106-37 122-93 62-3 111-54 111-117 0-65-52-117-116-117z m-104 169l22 0 0-150-22 0z m65-22l13-18-121-87-13 18z m-109-2l123-84-12-17-123 84z m-125-85l21 0 0-150-21 0z m65-23l12-18-122-86-12 17z m-111-1l124-85-12-17-124 84z m250-60l22 0 0-150-22 0z m67-22l12-17-122-87-13 17z m-112-3l124-84-12-17-124 84z"/>
<glyph unicode="&#55;" d="M256 245c-6 0-11 5-11 11l0 239c0 6 5 11 11 11 6 0 11-5 11-11l0-239c0-6-5-11-11-11z m0 161l-60 60c-4 4-4 11 0 15 5 4 11 4 15 0l45-45 45 45c4 4 10 4 15 0 4-4 4-11 0-15z m0-86l-60 60c-4 4-4 10 0 15 5 4 11 4 15 0l45-45 45 45c4 4 10 4 15 0 4-5 4-11 0-15z m0-314c-6 0-11 5-11 11l0 239c0 6 5 11 11 11 6 0 11-5 11-11l0-239c0-6-5-11-11-11z m52 22c-3 0-5 1-7 3l-45 45-45-45c-4-4-10-4-15 0-4 4-4 11 0 15l60 60 60-60c4-4 4-11 0-15-2-2-5-3-8-3z m-104 86c-3 0-6 1-8 3-4 5-4 11 0 15l60 60 60-60c4-4 4-10 0-15-5-4-11-4-15 0l-45 45-45-45c-2-2-4-3-7-3z m256 8c-2 0-5 0-6 1l-203 123c-6 4-7 10-4 15 4 6 10 7 15 4l204-124c5-3 7-10 3-15-2-2-6-4-9-4z m-45-35c-5 0-10 4-11 9l-19 82 82 19c6 1 12-2 13-7 1-5-2-12-7-13l-61-15 15-61c1-5-2-11-8-12-2-2-3-2-4-2z m-75 45c-5 0-9 3-10 9l-20 83 83 19c5 1 11-2 12-7 1-6-2-12-7-13l-61-15 15-62c1-5-2-12-7-13-3-1-4-1-5-1z m-84 113c-2 0-4 0-5 1l-204 124c-5 3-6 10-4 15 3 5 9 6 15 3l203-123c6-4 7-10 4-15-2-3-6-5-9-5z m-213 70c-6 0-10 3-11 8-1 6 2 12 7 13l61 15-14 61c-1 5 3 10 9 13 5 1 11-3 13-9l19-82-82-19c0 0-1 0-2 0z m74-46c-5 0-9 3-10 8-1 6 2 12 7 13l61 15-15 62c-1 5 2 12 7 13 6 1 12-2 13-8l19-83-82-19c2-1 1-1 0-1z m139-24c-3 0-7 2-10 6-3 5-1 11 4 15l203 123c6 4 12 1 15-3 3-5 1-12-3-15l-204-125c-1-1-3-1-5-1z m213 70c-1 0-2 0-2 0l-82 19 19 82c1 5 8 10 13 7 5-1 10-7 8-12l-15-61 60-15c6-1 10-8 8-13 1-4-3-7-9-7z m-74-46c-1 0-2 0-2 0l-83 19 20 83c1 6 7 10 12 8 6-1 10-8 8-13l-15-62 61-15c5-1 9-7 7-13 1-4-3-7-8-7z m-343-147c-3 0-7 2-9 5-4 5-1 12 3 15l204 124c5 3 11 1 15-4 3-5 1-11-4-15l-203-124c-1-1-4-1-6-1z m45-35c-1 0-2 0-2 0-5 2-10 8-8 13l15 61-60 15c-6 1-10 7-8 13 2 5 8 9 13 7l82-19-21-81c-1-5-6-9-11-9z m75 45c-1 0-2 0-2 0-6 1-10 8-8 13l15 62-61 15c-7 2-10 7-9 13 1 5 7 9 12 7l83-19-20-83c-1-5-5-8-10-8z"/>
</font>
</defs>
</svg>
